<svg version="1.2" xmlns="http://www.w3.org/2000/svg" viewBox="0 0 746 378" width="746" height="378"><style>.a{fill:#fff}.b{fill:#006cbc}.c{fill:#ef2d19}</style><path class="a" d="m164.8 32.1c0 11.5-6.2 21.5-15.5 27v252.6h-148.7v-278.1q82.3 0 87.9 0c5-12.3 17.6-26 28.2-30.2 7.9-3.1 13.2-2.8 16.2-2.8q0.2 0 0.4 0c17.4 0 31.5 14.1 31.5 31.5z"/><path class="b" d=""/><path class="c" d="m122.3 8.6c3.3-1.5 6.9-2.4 10.7-2.4 3.2 0 6.3 0.6 9.1 1.7 0.1 1.1-0.4 3-4.9 5.3q-10.6 3.4-10.7 9-0.3 0.7-0.2 1.8c-1.1 0.5-1.8 0.9-2.8 1.4-1.1-4.9-2.4-11.5-1.2-16.8z"/><path class="c" d="m117 29.1c-4.3 2.8-7.5 5.5-9 7q-0.4-2.1-0.4-4.4 0-2.3 0.4-4.5 1.3 1 3.6 0c4.2 0 5.2 1.3 5.4 1.9z"/><path class="c" d="m113.6 48.1c-2.4-2.8-4.2-6.2-5.2-9.9 3.1-3.2 6.6-5.7 9.4-7.5 1.6 3.8-0.9 5.9-1.9 7.6-1.2 1.9-2.2 6.7-2.3 9.8z"/><path class="c" d="m156.2 21c1.5 3.3 2.3 6.9 2.3 10.7 0 3.6-0.7 7.1-2.1 10.2-0.8-3.2-3.2-8-10.7-9.7q-3.5-1.4-13.2-3.3-2.7-0.3-4.1-3.6c13.4-5.6 23.9-4.9 27.8-4.3z"/><path class="c" d="m144 8.7c4.7 2.3 8.6 5.9 11.2 10.5-10.2-1.4-19.7 0.8-27.4 4.1 0-1.5 0.8-3.8 4.9-6.1q9.4-3.4 11.3-8.5z"/><path class="c" d="m111.1 26c-1.5 0.2-2.1-0.4-2.7-0.7 1.7-6.5 5.9-12.1 11.6-15.5-0.4 2.6-0.7 8 1.6 16.5q-1.6 1-3.1 1.9-2.6-3.6-7.4-2.2z"/><path class="c" d="m138.1 56.5q-2.4 0.4-4.9 0.4c-6.8 0-13.5-2.9-18-7.5q-0.5-7.9 3.5-12.2c2.3-3.5 1.6-6.3 0.9-7.7 1.2-0.7 1.9-1.2 2.6-1.5 0.4 1.4 0.8 2.8 1.5 4.6q3.9 13.4 14.4 23.9z"/><path class="c" d="m154.9 44.9c-3.4 5.5-8.5 9.5-14.9 11.2-3.1-2.8-10.6-11.9-14.5-24.1q-0.6-1.8-1.4-4.7c1-0.5 1.6-0.8 2.6-1.3 0.5 1.4 1.6 2.9 3.9 4q4 1 8.1 1.9 16.3 3.1 16.2 13z"/><path class="c" d="m144.5 61.5v245.3h-80.9c2.7-23.8 12.4-45.5 23.4-62.9 7-10.9 11.2-20.9 12.7-29.1 0.9-5 1.4-15.6 1.4-21.2q0-4.8-0.4-11.2c-0.4-4.4-1-9-1.5-14.4q-6.4 1-6.8 18.5-3.1-6.7 1.6-19.4 6.7-11.9 7.6-20.2l-1-30.3q-0.2-4.5 1.5-11.8 3.3-5.2 2.8-23.9-2.8-26-0.9-37.8 8.2 26 40.5 18.4z"/><path fill-rule="evenodd" class="b" d="m111.3 9.8c-8.5 9-15.6 18.6-20.3 41.1q-6.4 31.8-5.2 49.5 3.3 4.8 7.1 3.4 2.3-0.8 1.6 0.7-0.3 3-3.8 4.6-1.4 4.5-4.5 5.5 1.7 9.5-3.4 26.9-13 19.1-7.9 29.8 3.5 5 5.4 6.5-0.7 33.4 8.6 34.6 2.5 1.2 5.8-3.6 0.1 8.9-3.9 20.2c-2.5 7.3-9.8 17-13.6 22.8-1.6 2.4-11.4 16.6-22.8 31.3q-7.7 9.8-22.7 23.7h-26.1v-91.6c2.7-1 8-6 8.8-6.1 4.4-0.4 9.8-1.4 9.3 3.5q9.2-9.5 9.4-11.4c0.8-6.1 1.8-9.8 7.2-14.8l0.8-1.6q-1.6-0.3-4.9 0.3-10.8 5-13.6 8.6-2.9 3.7-3.4 4.4l-2.7 1.6-10.9 4.3v-165.6h85.1c3.1-7.2 8.4-18.2 20.6-28.6zm-56 166.4c-1.3-0.5-4.4-1.8-5.7-3-0.5-0.5-0.3 1.6 0.7 2.5q1.5 1.5 1.5 2-2.3 2.1-3.2 3.2c-2.3 2.8-2.4 4.7-5.2 9.8l4.9-2.9c1.4-2.9 3.9-5.2 5-6.7l0.7-1.9zm22.5-34q-9.6-7.2-19.6-4-12.9 3.4-14.7 15.5-0.2 1.8 0.7 1.3c0.5-0.7 1.5-2.9 5.3-5q9.8-5.7 16.2 1-2.3 9.2 5 13.3-0.3-5.1 7.1-22.1z"/><path class="b" d=""/><path class="a" d="m180 33.9h73.8v203.1h67.9v74.6h-141.7z"/><path fill-rule="evenodd" class="a" d="m552.1 33.9h95.3c34.9 0 66.2 27.7 66.2 71.9 0 26.9-10.8 51.1-26.1 60.4v0.8c28.7 5.7 40 35.3 40 65 0 47.7-25 79.6-71.5 79.6h-103.9zm67.2 50.5v54.4h10.1c17.6 0 23.1-11.9 23.1-28.6 0-19-8.2-25.8-23.4-25.8zm-0.3 171.7h11.5c20 0 28.1-9.8 28.1-32.4 0-18.8-9.8-27.8-29-27.8h-10.6z"/><path class="a" d="m342.1 33.8h93.6l34.9 143.6v-143.6h59.8v277.8h-88.5l-40-164v164h-59.8z"/><path fill-rule="evenodd" class="a" d="m730.3 282.7q3.8 0 7.3 1.9 3.6 1.9 5.6 5.5 2 3.6 2 7.5 0 3.8-2 7.4-1.9 3.5-5.5 5.5-3.5 1.9-7.4 1.9-3.8 0-7.4-1.9-3.5-2-5.5-5.5-2-3.6-2-7.4 0-3.9 2-7.5 2-3.6 5.6-5.5 3.6-1.9 7.3-1.9zm0 2.5q-3.1 0-6.1 1.6-2.9 1.6-4.6 4.5-1.7 3-1.7 6.3 0 3.2 1.7 6.1 1.6 3 4.6 4.6 2.9 1.7 6.1 1.7 3.2 0 6.2-1.7 2.9-1.6 4.6-4.6 1.6-2.9 1.6-6.1 0-3.3-1.6-6.3-1.7-2.9-4.7-4.5-3-1.6-6.1-1.6zm4.8 14.9l2.4 0.6q-0.6 2.5-2.5 4-1.9 1.4-4.7 1.4-3.5 0-5.7-2.2-2.2-2.3-2.2-6.3 0-2.6 1-4.5 1-2 2.9-2.9 1.8-1 4.2-1 2.6 0 4.4 1.2 1.7 1.3 2.4 3.4l-2.4 0.6q-0.6-1.4-1.7-2.2-1.2-0.8-2.8-0.8-2.3 0-3.8 1.6-1.5 1.7-1.5 4.7 0 3 1.4 4.6 1.4 1.5 3.6 1.5 1.9 0 3.2-1 1.4-1 1.8-2.7z"/><path class="a" d="m0.6 376.8v-34.3h4.8v30.2h16v4.1z"/><path class="a" d="m28.1 376.8v-34.3h4.7v34.3z"/><path class="a" d="m65.9 351.1c-0.9-4.1-4.5-5.2-8.1-5.2-8.4 0-11.5 7.4-11.3 13.8 0.4 8.8 3.1 13.6 12.9 13.8 2.3 0 4.7-0.4 6.8-1.1v-9.7h-7.8v-4.1h12.6v17c-3.9 1.2-7.9 2-11.8 2-4.9 0-8.8-0.7-12.6-4-3.8-3.3-5.1-9.1-5.1-13.9 0-3.6 1.2-7.5 3-10.6 3-5.2 8-7.3 13.9-7.3 5.7 0 12.2 2.7 12.5 9.3z"/><path class="a" d="m108.8 363.3c0.2 8.8-4.5 14.3-13.8 14.3-9.3 0-14-5.5-13.9-14.3v-20.8h4.8v21.9c0.1 5.9 3.6 9.1 9.1 9.1 5.4 0 8.9-3.2 9.1-9.1v-21.9h4.7z"/><path class="a" d="m118.2 376.8v-34.3h21.6v4.1h-16.8v10.7h16v4.1h-16v11.3h17.2v4.1z"/><path class="a" d="m191.6 342.5v34.3h-5.9l-17.3-29.1h-0.1v29.1h-4.2v-34.3h6.5l16.7 28.4h0.1v-28.4z"/><path fill-rule="evenodd" class="a" d="m198 376.8l14.4-34.3h5.1l13.9 34.3h-5.2l-3.7-8.9h-15.9l-3.7 8.9zm10.2-13h12.8l-6.2-16.6z"/><path class="a" d="m241.7 346.6h-11.5v-4.1h27.8v4.1h-11.5v30.2h-4.8z"/><path class="a" d="m264 376.8v-34.3h4.8v34.3z"/><path fill-rule="evenodd" class="a" d="m292.7 341.8c10.7 0 15.7 7.8 15.7 17.9 0 10-5 17.9-15.7 17.9-10.7 0-15.7-7.9-15.7-17.9 0-10.1 5-17.9 15.7-17.9zm0 31.7c8.7 0 10.7-6.7 10.7-13.8 0-7.3-2-13.8-10.7-13.8-8.7 0-10.7 6.5-10.7 13.8 0 7.1 2 13.8 10.7 13.8z"/><path class="a" d="m344.7 342.5v34.3h-5.9l-17.3-29.1h-0.1v29.1h-4.3v-34.3h6.6l16.7 28.4h0.1v-28.4z"/><path fill-rule="evenodd" class="a" d="m351.1 376.8l14.4-34.3h5.1l13.9 34.3h-5.2l-3.7-8.9h-15.9l-3.7 8.9zm10.2-13h12.8l-6.2-16.6z"/><path class="a" d="m390.6 376.8v-34.3h4.7v30.2h16v4.1z"/><path class="a" d="m417.4 376.8v-34.3h21.5v4.1h-16.8v10.7h16v4.1h-16v11.3h17.2v4.1z"/><path fill-rule="evenodd" class="a" d="m473.8 351.5h3.3v22.2c0 1.1 0.1 2.1 0.2 3.1h-3.4l-0.1-2.6v-0.2h-0.1c-1.2 2.5-3.5 3.4-6 3.4-5.3 0-7.3-4.8-7.3-9.4 0-4.7 2.4-9.3 7.8-9.3 2.3 0 4.5 0.8 5.5 2.9h0.1zm-4.9 23.5c4 0 4.9-3.7 4.9-7 0-3.2-1.2-7-4.9-7-4 0-5 3.7-5 7 0 3.3 1.2 7 5 7z"/><path fill-rule="evenodd" class="a" d="m486.1 368.7c-0.3 3.1 1 6.3 4.4 6.3 2.6 0 3.9-1.1 4.3-3.6h3.5c-0.6 4-3.6 6-7.8 6-5.7 0-7.9-4-7.9-9.2 0-5.2 2.6-9.5 8.1-9.5 5.3 0.1 7.8 3.4 7.8 8.3v1.7zm8.9-2.4c0.1-2.9-1.3-5.2-4.5-5.2-2.8 0-4.4 2.4-4.4 5.2z"/><path fill-rule="evenodd" class="a" d="m520.1 376.8v-34.3h12.3c5.8 0 11 2.3 11 9 0 3.5-2.4 6.4-5.8 7.4v0.1c4.4 0.6 6.9 4.6 6.9 8.9 0 4-2.6 6.9-6.3 8.3-1.7 0.6-3.8 0.7-5.8 0.6zm4.7-19.8h5.9c4.5 0.1 7.7-0.7 7.7-5.2 0-4.5-3.2-5.4-7.7-5.2h-5.9zm0 15.8h8c3.6 0 6.7-1.6 6.7-5.8 0-4.3-3.1-5.9-6.7-5.9h-8z"/><path fill-rule="evenodd" class="a" d="m548.9 376.8l14.5-34.3h5.1l13.9 34.3h-5.2l-3.7-8.9h-16l-3.7 8.9zm10.2-13h12.8l-6.2-16.6z"/><path class="a" d="m591.7 366.8c0.1 4.9 2.9 6.7 7.5 6.7 3.9 0 8.6-1.2 8.6-6 0-3.3-2.7-4.7-5.6-5.3-5.6-1.2-15.1-2.5-15.1-10.2 0-7.5 6.9-10.2 13.3-10.2 5.8 0 11.6 2.6 11.6 9.3h-5c-0.2-3.9-3.4-5.2-6.9-5.2-3.3 0-7.9 1.2-7.9 5.3 0 3.9 2.7 4.2 5.7 5.1 6.3 2 15 2 15 10.7 0 7.8-7 10.6-14 10.6-7.2 0-12.4-3.1-12.2-10.8z"/><path class="a" d="m621.3 376.8v-34.3h4.8v14.9l14.3-14.9h6.5l-15.4 15.4 17.1 18.9h-6.7l-15.8-18.2v18.2z"/><path class="a" d="m653.4 376.8v-34.3h21.6v4.1h-16.8v10.7h16v4.1h-16v11.3h17.2v4.1z"/><path class="a" d="m692.3 346.6h-11.5v-4.1h27.8v4.1h-11.5v30.2h-4.8z"/></svg>